<?xml version="1.0" encoding="UTF-8" standalone="no"?><!DOCTYPE svg PUBLIC "-//W3C//DTD SVG 1.1//EN" "http://www.w3.org/Graphics/SVG/1.1/DTD/svg11.dtd"><svg width="100%" height="100%" viewBox="0 0 2271 1063" version="1.1" xmlns="http://www.w3.org/2000/svg" xmlns:xlink="http://www.w3.org/1999/xlink" xml:space="preserve" xmlns:serif="http://www.serif.com/" style="fill-rule:evenodd;clip-rule:evenodd;stroke-miterlimit:10;"><g id="Layer-1" serif:id="Layer 1"><text x="363.22px" y="1048.71px" style="font-family:'Arial-BoldMT', 'Arial';font-weight:700;font-size:105.746px;">I<tspan x="428.733px 552.953px 659.617px 772.116px 890.502px 997.166px 1103.83px 1228.05px 1334.72px 1447.21px 1547.94px 1627.15px 1727.88px 1828.61px " y="1048.71px 1048.71px 1048.71px 1048.71px 1048.71px 1048.71px 1048.71px 1048.71px 1048.71px 1048.71px 1048.71px 1048.71px 1048.71px 1048.71px ">MPROVEMENT LLC</tspan></text><path d="M12.763,1023.71l321.146,4.416l-0,-8.829l-321.146,4.413Z" style="fill-rule:nonzero;"/><path d="M2236.04,1022.61l-321.146,4.417l0,-8.829l321.146,4.412Z" style="fill-rule:nonzero;"/><path d="M179.061,740.562l0,34.542l-116.841,0l-0,29.85l110.658,0l0,34.325l-110.658,0l-0,51.813l-46.479,-0l-0,-150.53l163.32,0Z" style="fill-rule:nonzero;"/><path d="M272.891,832.457l63.325,0l-31.129,-58.633l-32.196,58.633Zm61.621,-91.896l84.858,150.529l-52.237,0l-14.071,-26.862l-97.013,-0l-14.287,26.862l-50.746,0l83.583,-150.529l59.913,0Z" style="fill-rule:nonzero;"/><path d="M516.187,740.562l54.584,98.717l54.795,-98.717l73.559,0l-0,150.53l-44.775,-0l-0,-113.859l-65.884,113.859l-36.883,-0l-65.675,-114.496l0,114.496l-44.133,-0l-0,-150.53l74.412,0Z" style="fill-rule:nonzero;"/><rect x="735.397" y="740.564" width="47.758" height="150.529"/><path d="M866.317,740.562l0,113.217l104.05,0l0,37.313l-151.171,-0l0,-150.53l47.121,0Z" style="fill-rule:nonzero;"/><path d="M1091.91,801.968l50.746,-61.404l60.125,-0l-86.991,97.866l-0,52.663l-47.121,-0l-0,-52.663l-85.5,-97.866l58.212,-0l50.529,61.404Z" style="fill-rule:nonzero;"/><path d="M1337.56,740.564l0,55.008l103.838,0l-0,-55.008l46.479,0l-0,150.529l-46.692,0l0,-58.637l-104.046,-0l0,58.637l-46.696,0l0,-150.529l47.117,0Z" style="fill:url(#_Linear1);fill-rule:nonzero;"/><path d="M1566.57,740.56c-8.959,1.279 -16.209,2.558 -24.092,7.25c-10.663,6.183 -16.208,16.208 -18.55,27.933c-0.429,2.346 -0.858,4.692 -1.067,7.038l-1.491,44.137c-0,19.188 0.42,42.642 18.545,55.221c11.73,8.104 24.734,8.95 38.167,9.808c17.271,0.425 34.329,0.855 51.596,0.855c15.146,-0 30.279,-0.43 45.204,-0.642c16.629,-1.279 34.333,-3.196 45.846,-17.271c7.458,-9.167 8.954,-17.912 10.442,-29c0.429,-7.246 1.07,-14.279 1.283,-21.317c0.425,-10.879 -0,-21.541 -0.429,-32.412c-0.642,-10.875 -1.488,-20.471 -6.825,-30.275c-9.167,-16.204 -24.729,-19.188 -30.913,-20.254c-2.346,-0.429 -4.687,-0.854 -7.037,-1.071c-21.959,-1.063 -43.704,-1.917 -65.459,-1.917c-18.55,0 -36.887,0.854 -55.22,1.917Zm6.395,106.829c-3.408,-4.908 -4.266,-14.079 -4.691,-26.871c0.212,-11.725 0.425,-19.829 1.066,-25.158c0.217,-1.063 0.85,-5.117 2.559,-8.317c0.637,-1.279 1.916,-3.408 4.904,-5.541c4.267,-3.2 8.317,-4.48 18.762,-5.121l64.392,-0c11.942,0.854 20.679,1.921 24.304,13.862c1.063,3.196 1.284,5.754 1.5,9.167l0,32.625c-0.854,7.246 -1.708,10.446 -3.625,13.642c-4.691,8.1 -13.65,8.958 -23.458,9.812l-61.404,0c-12.792,-1.067 -20.471,-2.775 -24.309,-8.1Z" style="fill:url(#_Linear2);fill-rule:nonzero;"/><path d="M1949.31,740.56l-54.8,98.721l-54.579,-98.721l-74.416,-0l-0,150.529l44.133,0l-0,-114.496l65.675,114.496l36.883,0l65.884,-113.854l-0,113.854l44.77,0l0,-150.529l-73.55,-0Z" style="fill:url(#_Linear3);fill-rule:nonzero;"/><path d="M2058.71,740.56l0,150.529l168.225,0l0,-34.112l-122.387,-0l-0,-26.438l115.783,0l0,-31.554l-115.783,-0l-0,-25.163l122.387,0l0,-33.262l-168.225,-0Z" style="fill:url(#_Linear4);fill-rule:nonzero;"/><path d="M997.038,613.764c0.088,14.846 -0.987,29.692 -0.383,44.55c0.025,0.629 0.163,2.533 0.313,4.642c3.762,4.429 7.375,8.987 10.97,13.575c4.488,2.225 8.617,5.071 11.846,8.3c2.5,2.496 4.854,5.675 6.879,9.162l1001.07,0c13.867,-14.746 28.975,-39.812 31.775,-80.229l-1062.47,0Z" style="fill:url(#_Linear5);fill-rule:nonzero;"/><path d="M1097.13,597.047c7.479,10.308 11.921,23.179 11.921,37.15c-0,33.845 -26.092,61.283 -58.279,61.283c-32.188,-0 -58.279,-27.438 -58.279,-61.283c-0,-13.971 4.445,-26.846 11.925,-37.15" style="fill:none;fill-rule:nonzero;stroke:#fff;stroke-width:12.5px;"/><path d="M1083.37,765.28c-1.767,-0.204 -3.792,-2.008 -4.184,-3.733c-0.366,-1.596 0.45,-2.655 2.063,-2.659c1.875,0 4.237,1.921 4.612,3.754c0.363,1.784 -0.645,2.85 -2.491,2.638m-7.988,-13.108c-0.083,-0.338 -0.112,-0.696 -0.129,-1.042c-0.279,-6.371 2.646,-11.517 6.433,-16.388c-0.137,1.5 -0.341,3 -0.404,4.5c-0.125,2.946 -0.183,5.888 0.242,8.821c0.308,2.113 -0.088,4.079 -1.825,5.525c-1.808,1.513 -3.742,0.854 -4.317,-1.416m13.259,-39.834c-2.042,6.809 -5.842,12.746 -9.459,18.767c-3.012,5.008 -5.862,10.104 -7.062,15.908c-1.404,6.809 -0.963,13.279 4.558,18.292c5.175,4.704 11.388,6.275 18.225,4.892c9.567,-1.938 15.042,-8.992 14.646,-18.721c-0.25,-6.134 -2.588,-11.609 -5.583,-16.838c-5.363,-9.358 -11.817,-18.221 -13.563,-29.341c-0.583,2.35 -1.071,4.725 -1.762,7.041" style="fill:#3ca0be;fill-rule:nonzero;"/><path d="M898.447,159.31l21.171,-25.071l-212.834,-34.546l247.379,209.496l356.575,-299.754l-412.291,149.875Z" style="fill:url(#_Linear6);fill-rule:nonzero;"/><path d="M470.551,451.818l216.179,-152.662l219.517,152.662l-217.846,-190.55l-217.85,190.55Z" style="fill:url(#_Linear7);fill-rule:nonzero;"/><path d="M1179.26,295.814l152.658,-94.717l310.892,236.234l-310.892,-273.004l-152.658,131.487Z" style="fill:url(#_Linear8);fill-rule:nonzero;"/><rect x="353.547" y="192.739" width="123.129" height="17.271" style="fill:url(#_Linear9);"/><rect x="696.755" y="465.193" width="62.217" height="61.842" style="fill:url(#_Linear10);"/><rect x="617.826" y="465.193" width="59.983" height="61.842" style="fill:url(#_Linear11);"/><path d="M696.755,446.806l62.171,-0c-0.463,-35.721 -27.446,-65.004 -62.171,-69.104l0,69.104Z" style="fill:url(#_Linear12);fill-rule:nonzero;"/><path d="M617.876,446.806l59.933,-0l0,-68.767c-33.637,5.071 -59.479,33.817 -59.933,68.767Z" style="fill:url(#_Linear13);fill-rule:nonzero;"/><rect x="1343.26" y="368.006" width="62.217" height="61.846" style="fill:url(#_Linear14);"/><rect x="1264.34" y="368.006" width="59.983" height="61.846" style="fill:url(#_Linear15);"/><path d="M1343.26,349.618l62.171,0c-0.462,-35.716 -27.446,-64.996 -62.171,-69.104l0,69.104Z" style="fill:url(#_Linear16);fill-rule:nonzero;"/><path d="M1264.38,349.618l59.938,0l-0,-68.762c-33.642,5.071 -59.484,33.816 -59.938,68.762Z" style="fill:url(#_Linear17);fill-rule:nonzero;"/><path d="M2173.22,578.668l-0,18.379l63.491,0l-10.562,11.996l-0,40.05l-23.346,26.513l-109.254,-0l-0,-61.842l-21.659,0c-1.212,23 -6.966,56.533 -28.229,80.229l200.954,0l-0.079,-78.008l16.671,-18.938l0.042,0l-0,-18.379l-88.029,0Z" style="fill:url(#_Linear18);fill-rule:nonzero;"/><path d="M2212.03,604.852l0,43.641l14.113,0l-0,-43.641l-14.113,-0Z" style="fill:url(#_Linear19);fill-rule:nonzero;"/><path d="M2208.12,653.793l-5.191,-20.842l-14.513,2.017l-2.146,12.437l-43.516,0l-0,-13.783l-6.45,0l-0,-10.758l-33.846,-0l-0,49.083l99.396,0l6.266,-18.154Z" style="fill:#3ca0be;fill-rule:nonzero;"/><path d="M470.551,291.435l0,-73.62l-106.975,-0l0,167.162l106.975,-93.542Z" style="fill-rule:nonzero;"/><path d="M684.87,224.498l401.15,365.496l894.421,0l-641.838,-573.5l-359.554,312.008l50.517,59.43l306.062,-255.55l477.409,431.112l-620.134,0l-505.062,-448.942l-662.642,579.442l644.817,0l-0,-80.229l-412.75,-0l427.604,-389.267Z" style="fill-rule:nonzero;"/><rect x="2200.7" y="681.997" width="26.233" height="91.371" style="fill:url(#_Linear20);"/></g><defs><linearGradient id="_Linear1" x1="0" y1="0" x2="1" y2="0" gradientUnits="userSpaceOnUse" gradientTransform="matrix(8.4507,261.972,-261.972,8.4507,1385.54,703.787)"><stop offset="0" style="stop-color:#4169e1;stop-opacity:1"/><stop offset="0.52" style="stop-color:#4169e1;stop-opacity:1"/><stop offset="0.86" style="stop-color:#5682f1;stop-opacity:1"/><stop offset="1" style="stop-color:#5682f1;stop-opacity:1"/></linearGradient><linearGradient id="_Linear2" x1="0" y1="0" x2="1" y2="0" gradientUnits="userSpaceOnUse" gradientTransform="matrix(8.4507,261.972,-261.972,8.4507,1622.96,696.129)"><stop offset="0" style="stop-color:#4169e1;stop-opacity:1"/><stop offset="0.52" style="stop-color:#4169e1;stop-opacity:1"/><stop offset="0.86" style="stop-color:#5682f1;stop-opacity:1"/><stop offset="1" style="stop-color:#5682f1;stop-opacity:1"/></linearGradient><linearGradient id="_Linear3" x1="0" y1="0" x2="1" y2="0" gradientUnits="userSpaceOnUse" gradientTransform="matrix(8.4507,261.972,-261.972,8.4507,1890.05,687.513)"><stop offset="0" style="stop-color:#4169e1;stop-opacity:1"/><stop offset="0.52" style="stop-color:#4169e1;stop-opacity:1"/><stop offset="0.86" style="stop-color:#5682f1;stop-opacity:1"/><stop offset="1" style="stop-color:#5682f1;stop-opacity:1"/></linearGradient><linearGradient id="_Linear4" x1="0" y1="0" x2="1" y2="0" gradientUnits="userSpaceOnUse" gradientTransform="matrix(-12.6761,430.986,-430.986,-12.6761,2154.45,420.661)"><stop offset="0" style="stop-color:#4169e1;stop-opacity:1"/><stop offset="0.52" style="stop-color:#4169e1;stop-opacity:1"/><stop offset="0.86" style="stop-color:#5682f1;stop-opacity:1"/><stop offset="1" style="stop-color:#5682f1;stop-opacity:1"/></linearGradient><linearGradient id="_Linear5" x1="0" y1="0" x2="1" y2="0" gradientUnits="userSpaceOnUse" gradientTransform="matrix(0,253.521,-253.521,0,1527.99,429.763)"><stop offset="0" style="stop-color:#4169e1;stop-opacity:1"/><stop offset="0.52" style="stop-color:#4169e1;stop-opacity:1"/><stop offset="0.86" style="stop-color:#5682f1;stop-opacity:1"/><stop offset="1" style="stop-color:#5682f1;stop-opacity:1"/></linearGradient><linearGradient id="_Linear6" x1="0" y1="0" x2="1" y2="0" gradientUnits="userSpaceOnUse" gradientTransform="matrix(603.956,0,0,603.956,706.786,159.312)"><stop offset="0" style="stop-color:#4169e1;stop-opacity:1"/><stop offset="0.52" style="stop-color:#4169e1;stop-opacity:1"/><stop offset="0.86" style="stop-color:#5682f1;stop-opacity:1"/><stop offset="1" style="stop-color:#5682f1;stop-opacity:1"/></linearGradient><linearGradient id="_Linear7" x1="0" y1="0" x2="1" y2="0" gradientUnits="userSpaceOnUse" gradientTransform="matrix(0,249.296,-249.296,0,688.399,214.27)"><stop offset="0" style="stop-color:#4169e1;stop-opacity:1"/><stop offset="0.52" style="stop-color:#4169e1;stop-opacity:1"/><stop offset="0.86" style="stop-color:#5682f1;stop-opacity:1"/><stop offset="1" style="stop-color:#5682f1;stop-opacity:1"/></linearGradient><linearGradient id="_Linear8" x1="0" y1="0" x2="1" y2="0" gradientUnits="userSpaceOnUse" gradientTransform="matrix(463.553,2.84217e-14,-2.84217e-14,463.553,1179.25,300.829)"><stop offset="0" style="stop-color:#4169e1;stop-opacity:1"/><stop offset="0.52" style="stop-color:#4169e1;stop-opacity:1"/><stop offset="0.86" style="stop-color:#5682f1;stop-opacity:1"/><stop offset="1" style="stop-color:#5682f1;stop-opacity:1"/></linearGradient><linearGradient id="_Linear9" x1="0" y1="0" x2="1" y2="0" gradientUnits="userSpaceOnUse" gradientTransform="matrix(123.131,0,0,123.131,353.549,201.377)"><stop offset="0" style="stop-color:#4169e1;stop-opacity:1"/><stop offset="0.52" style="stop-color:#4169e1;stop-opacity:1"/><stop offset="0.86" style="stop-color:#5682f1;stop-opacity:1"/><stop offset="1" style="stop-color:#5682f1;stop-opacity:1"/></linearGradient><linearGradient id="_Linear10" x1="0" y1="0" x2="1" y2="0" gradientUnits="userSpaceOnUse" gradientTransform="matrix(-8.4507,308.451,-308.451,-8.4507,732.457,328.496)"><stop offset="0" style="stop-color:#4169e1;stop-opacity:1"/><stop offset="0.52" style="stop-color:#4169e1;stop-opacity:1"/><stop offset="0.86" style="stop-color:#5682f1;stop-opacity:1"/><stop offset="1" style="stop-color:#5682f1;stop-opacity:1"/></linearGradient><linearGradient id="_Linear11" x1="0" y1="0" x2="1" y2="0" gradientUnits="userSpaceOnUse" gradientTransform="matrix(-8.4507,308.451,-308.451,-8.4507,652.472,326.305)"><stop offset="0" style="stop-color:#4169e1;stop-opacity:1"/><stop offset="0.52" style="stop-color:#4169e1;stop-opacity:1"/><stop offset="0.86" style="stop-color:#5682f1;stop-opacity:1"/><stop offset="1" style="stop-color:#5682f1;stop-opacity:1"/></linearGradient><linearGradient id="_Linear12" x1="0" y1="0" x2="1" y2="0" gradientUnits="userSpaceOnUse" gradientTransform="matrix(-8.4507,308.451,-308.451,-8.4507,730.138,328.433)"><stop offset="0" style="stop-color:#4169e1;stop-opacity:1"/><stop offset="0.52" style="stop-color:#4169e1;stop-opacity:1"/><stop offset="0.86" style="stop-color:#5682f1;stop-opacity:1"/><stop offset="1" style="stop-color:#5682f1;stop-opacity:1"/></linearGradient><linearGradient id="_Linear13" x1="0" y1="0" x2="1" y2="0" gradientUnits="userSpaceOnUse" gradientTransform="matrix(-8.4507,308.451,-308.451,-8.4507,651.142,326.268)"><stop offset="0" style="stop-color:#4169e1;stop-opacity:1"/><stop offset="0.52" style="stop-color:#4169e1;stop-opacity:1"/><stop offset="0.86" style="stop-color:#5682f1;stop-opacity:1"/><stop offset="1" style="stop-color:#5682f1;stop-opacity:1"/></linearGradient><linearGradient id="_Linear14" x1="0" y1="0" x2="1" y2="0" gradientUnits="userSpaceOnUse" gradientTransform="matrix(0,287.324,-287.324,0,1374.37,150.89)"><stop offset="0" style="stop-color:#4169e1;stop-opacity:1"/><stop offset="0.52" style="stop-color:#4169e1;stop-opacity:1"/><stop offset="0.86" style="stop-color:#5682f1;stop-opacity:1"/><stop offset="1" style="stop-color:#5682f1;stop-opacity:1"/></linearGradient><linearGradient id="_Linear15" x1="0" y1="0" x2="1" y2="0" gradientUnits="userSpaceOnUse" gradientTransform="matrix(0,287.324,-287.324,0,1294.33,150.89)"><stop offset="0" style="stop-color:#4169e1;stop-opacity:1"/><stop offset="0.52" style="stop-color:#4169e1;stop-opacity:1"/><stop offset="0.86" style="stop-color:#5682f1;stop-opacity:1"/><stop offset="1" style="stop-color:#5682f1;stop-opacity:1"/></linearGradient><linearGradient id="_Linear16" x1="0" y1="0" x2="1" y2="0" gradientUnits="userSpaceOnUse" gradientTransform="matrix(0,287.324,-287.324,0,1374.35,150.89)"><stop offset="0" style="stop-color:#4169e1;stop-opacity:1"/><stop offset="0.52" style="stop-color:#4169e1;stop-opacity:1"/><stop offset="0.86" style="stop-color:#5682f1;stop-opacity:1"/><stop offset="1" style="stop-color:#5682f1;stop-opacity:1"/></linearGradient><linearGradient id="_Linear17" x1="0" y1="0" x2="1" y2="0" gradientUnits="userSpaceOnUse" gradientTransform="matrix(0,287.324,-287.324,0,1294.35,150.89)"><stop offset="0" style="stop-color:#4169e1;stop-opacity:1"/><stop offset="0.52" style="stop-color:#4169e1;stop-opacity:1"/><stop offset="0.86" style="stop-color:#5682f1;stop-opacity:1"/><stop offset="1" style="stop-color:#5682f1;stop-opacity:1"/></linearGradient><linearGradient id="_Linear18" x1="0" y1="0" x2="1" y2="0" gradientUnits="userSpaceOnUse" gradientTransform="matrix(-12.7733,434.291,-434.291,-12.7733,2159.1,419.61)"><stop offset="0" style="stop-color:#4169e1;stop-opacity:1"/><stop offset="0.52" style="stop-color:#4169e1;stop-opacity:1"/><stop offset="0.86" style="stop-color:#5682f1;stop-opacity:1"/><stop offset="1" style="stop-color:#5682f1;stop-opacity:1"/></linearGradient><linearGradient id="_Linear19" x1="0" y1="0" x2="1" y2="0" gradientUnits="userSpaceOnUse" gradientTransform="matrix(-12.6761,430.986,-430.986,-12.6761,2225.09,422.739)"><stop offset="0" style="stop-color:#4169e1;stop-opacity:1"/><stop offset="0.52" style="stop-color:#4169e1;stop-opacity:1"/><stop offset="0.86" style="stop-color:#5682f1;stop-opacity:1"/><stop offset="1" style="stop-color:#5682f1;stop-opacity:1"/></linearGradient><linearGradient id="_Linear20" x1="0" y1="0" x2="1" y2="0" gradientUnits="userSpaceOnUse" gradientTransform="matrix(-12.6761,430.986,-430.986,-12.6761,2222.79,422.671)"><stop offset="0" style="stop-color:#4169e1;stop-opacity:1"/><stop offset="0.52" style="stop-color:#4169e1;stop-opacity:1"/><stop offset="0.86" style="stop-color:#5682f1;stop-opacity:1"/><stop offset="1" style="stop-color:#5682f1;stop-opacity:1"/></linearGradient></defs></svg>