<?xml version="1.0" encoding="UTF-8" standalone="no"?><!DOCTYPE svg PUBLIC "-//W3C//DTD SVG 1.1//EN" "http://www.w3.org/Graphics/SVG/1.1/DTD/svg11.dtd"><svg width="100%" height="100%" viewBox="0 0 2271 1063" version="1.1" xmlns="http://www.w3.org/2000/svg" xmlns:xlink="http://www.w3.org/1999/xlink" xml:space="preserve" xmlns:serif="http://www.serif.com/" style="fill-rule:evenodd;clip-rule:evenodd;stroke-miterlimit:10;"><g id="Layer-1" serif:id="Layer 1"><text x="360.192px" y="1046.64px" style="font-family:'Arial-BoldMT', 'Arial';font-weight:700;font-size:105.746px;fill:#fff;">I<tspan x="425.705px 549.925px 656.589px 769.089px 887.474px 994.139px 1100.8px 1225.02px 1331.69px 1444.19px 1544.91px 1624.12px 1724.85px 1825.58px " y="1046.64px 1046.64px 1046.64px 1046.64px 1046.64px 1046.64px 1046.64px 1046.64px 1046.64px 1046.64px 1046.64px 1046.64px 1046.64px 1046.64px ">MPROVEMENT LLC</tspan></text><path d="M9.735,1021.63l321.146,4.417l0,-8.829l-321.146,4.412Z" style="fill:#fff;fill-rule:nonzero;"/><path d="M2233.01,1020.54l-321.146,4.416l0,-8.829l321.146,4.413Z" style="fill:#fff;fill-rule:nonzero;"/><path d="M176.034,738.493l-0,34.542l-116.842,-0l-0,29.85l110.658,-0l0,34.325l-110.658,-0l-0,51.812l-46.479,0l-0,-150.529l163.321,0Z" style="fill:#fff;fill-rule:nonzero;"/><path d="M269.863,830.388l63.325,-0l-31.129,-58.634l-32.196,58.634Zm61.621,-91.896l84.858,150.529l-52.237,-0l-14.071,-26.863l-97.012,0l-14.288,26.863l-50.746,-0l83.584,-150.529l59.912,-0Z" style="fill:#fff;fill-rule:nonzero;"/><path d="M513.159,738.493l54.584,98.717l54.796,-98.717l73.558,0l-0,150.529l-44.775,0l-0,-113.858l-65.883,113.858l-36.884,0l-65.675,-114.496l0,114.496l-44.133,0l-0,-150.529l74.412,0Z" style="fill:#fff;fill-rule:nonzero;"/><rect x="732.369" y="738.495" width="47.758" height="150.529" style="fill:#fff;"/><path d="M863.289,738.493l0,113.217l104.05,-0l0,37.312l-151.17,0l-0,-150.529l47.12,0Z" style="fill:#fff;fill-rule:nonzero;"/><path d="M1088.89,799.898l50.746,-61.404l60.125,0l-86.992,97.867l-0,52.662l-47.121,0l0,-52.662l-85.5,-97.867l58.213,0l50.529,61.404Z" style="fill:#fff;fill-rule:nonzero;"/><path d="M1334.53,738.495l0,55.008l103.838,0l-0,-55.008l46.479,-0l0,150.529l-46.692,-0l0,-58.638l-104.045,0l-0,58.638l-46.696,-0l-0,-150.529l47.116,-0Z" style="fill:url(#_Linear1);fill-rule:nonzero;"/><path d="M1563.54,738.491c-8.958,1.279 -16.208,2.558 -24.092,7.25c-10.662,6.183 -16.208,16.208 -18.55,27.933c-0.429,2.346 -0.858,4.692 -1.066,7.037l-1.492,44.138c-0,19.187 0.421,42.642 18.546,55.221c11.729,8.104 24.733,8.95 38.166,9.808c17.271,0.425 34.33,0.854 51.596,0.854c15.146,0 30.279,-0.429 45.204,-0.641c16.63,-1.28 34.334,-3.196 45.846,-17.271c7.459,-9.167 8.954,-17.913 10.442,-29c0.429,-7.246 1.071,-14.279 1.283,-21.317c0.425,-10.879 0,-21.542 -0.429,-32.412c-0.642,-10.875 -1.487,-20.471 -6.825,-30.275c-9.167,-16.205 -24.729,-19.188 -30.912,-20.255c-2.346,-0.429 -4.688,-0.854 -7.038,-1.07c-21.958,-1.063 -43.704,-1.917 -65.458,-1.917c-18.55,-0 -36.888,0.854 -55.221,1.917Zm6.396,106.829c-3.409,-4.909 -4.267,-14.079 -4.692,-26.871c0.213,-11.725 0.425,-19.829 1.067,-25.158c0.216,-1.063 0.85,-5.117 2.558,-8.317c0.638,-1.279 1.917,-3.408 4.904,-5.542c4.267,-3.2 8.317,-4.479 18.763,-5.121l64.391,0c11.942,0.855 20.68,1.921 24.305,13.863c1.062,3.196 1.283,5.754 1.5,9.167l-0,32.625c-0.855,7.245 -1.709,10.445 -3.625,13.641c-4.692,8.1 -13.65,8.959 -23.459,9.813l-61.404,-0c-12.792,-1.067 -20.471,-2.775 -24.308,-8.1Z" style="fill:url(#_Linear2);fill-rule:nonzero;"/><path d="M1946.29,738.491l-54.8,98.72l-54.579,-98.72l-74.417,-0l-0,150.529l44.133,-0l0,-114.496l65.675,114.496l36.884,-0l65.883,-113.854l-0,113.854l44.771,-0l-0,-150.529l-73.55,-0Z" style="fill:url(#_Linear3);fill-rule:nonzero;"/><path d="M2055.69,738.491l-0,150.529l168.225,-0l-0,-34.113l-122.388,0l0,-26.437l115.784,-0l-0,-31.554l-115.784,-0l0,-25.163l122.388,0l-0,-33.262l-168.225,-0Z" style="fill:url(#_Linear4);fill-rule:nonzero;"/><path d="M994.011,611.695c0.087,14.846 -0.988,29.691 -0.384,44.55c0.025,0.629 0.163,2.533 0.313,4.641c3.762,4.43 7.375,8.988 10.971,13.575c4.487,2.225 8.616,5.071 11.846,8.3c2.5,2.496 4.854,5.675 6.879,9.163l1001.07,-0c13.866,-14.746 28.975,-39.813 31.775,-80.229l-1062.47,-0Z" style="fill:url(#_Linear5);fill-rule:nonzero;"/><path d="M1094.1,594.977c7.48,10.309 11.921,23.179 11.921,37.15c0,33.846 -26.091,61.284 -58.279,61.284c-32.187,-0 -58.279,-27.438 -58.279,-61.284c-0,-13.971 4.446,-26.846 11.925,-37.15" style="fill:none;fill-rule:nonzero;stroke:#fff;stroke-width:12.5px;"/><path d="M1080.34,763.211c-1.767,-0.205 -3.792,-2.009 -4.183,-3.734c-0.367,-1.596 0.45,-2.654 2.062,-2.658c1.875,-0 4.238,1.921 4.613,3.754c0.362,1.783 -0.646,2.85 -2.492,2.638m-7.988,-13.109c-0.083,-0.337 -0.112,-0.696 -0.129,-1.041c-0.279,-6.371 2.646,-11.517 6.434,-16.388c-0.138,1.5 -0.342,3 -0.405,4.5c-0.125,2.946 -0.183,5.888 0.242,8.821c0.308,2.112 -0.087,4.079 -1.825,5.525c-1.808,1.512 -3.742,0.854 -4.317,-1.417m13.259,-39.833c-2.042,6.808 -5.842,12.746 -9.459,18.767c-3.012,5.008 -5.862,10.104 -7.062,15.908c-1.404,6.808 -0.963,13.279 4.558,18.292c5.175,4.704 11.388,6.275 18.225,4.891c9.567,-1.937 15.042,-8.991 14.646,-18.721c-0.25,-6.133 -2.587,-11.608 -5.583,-16.837c-5.363,-9.358 -11.817,-18.221 -13.563,-29.342c-0.583,2.35 -1.071,4.725 -1.762,7.042" style="fill:#3ca0be;fill-rule:nonzero;"/><path d="M895.419,157.241l21.171,-25.071l-212.833,-34.546l247.379,209.496l356.575,-299.754l-412.292,149.875Z" style="fill:url(#_Linear6);fill-rule:nonzero;"/><path d="M467.523,449.749l216.179,-152.663l219.517,152.663l-217.846,-190.55l-217.85,190.55Z" style="fill:url(#_Linear7);fill-rule:nonzero;"/><path d="M1176.23,293.745l152.659,-94.717l310.891,236.233l-310.891,-273.004l-152.659,131.488Z" style="fill:url(#_Linear8);fill-rule:nonzero;"/><rect x="350.519" y="190.67" width="123.129" height="17.271" style="fill:url(#_Linear9);"/><rect x="693.727" y="463.124" width="62.217" height="61.842" style="fill:url(#_Linear10);"/><rect x="614.798" y="463.124" width="59.983" height="61.842" style="fill:url(#_Linear11);"/><path d="M693.727,444.736l62.171,0c-0.462,-35.72 -27.446,-65.004 -62.171,-69.104l0,69.104Z" style="fill:url(#_Linear12);fill-rule:nonzero;"/><path d="M614.848,444.736l59.934,0l-0,-68.766c-33.638,5.071 -59.48,33.816 -59.934,68.766Z" style="fill:url(#_Linear13);fill-rule:nonzero;"/><rect x="1340.24" y="365.936" width="62.217" height="61.846" style="fill:url(#_Linear14);"/><rect x="1261.31" y="365.936" width="59.983" height="61.846" style="fill:url(#_Linear15);"/><path d="M1340.24,347.549l62.171,-0c-0.463,-35.717 -27.446,-64.996 -62.171,-69.104l-0,69.104Z" style="fill:url(#_Linear16);fill-rule:nonzero;"/><path d="M1261.36,347.549l59.937,-0l0,-68.763c-33.642,5.071 -59.483,33.817 -59.937,68.763Z" style="fill:url(#_Linear17);fill-rule:nonzero;"/><path d="M2170.19,576.599l-0,18.379l63.492,0l-10.563,11.996l0,40.05l-23.346,26.512l-109.254,0l0,-61.841l-21.658,-0c-1.213,23 -6.967,56.533 -28.229,80.229l200.954,-0l-0.079,-78.008l16.67,-18.938l0.042,0l0,-18.379l-88.029,-0Z" style="fill:url(#_Linear18);fill-rule:nonzero;"/><path d="M2209.01,602.782l-0,43.642l14.112,-0l0,-43.642l-14.112,0Z" style="fill:url(#_Linear19);fill-rule:nonzero;"/><path d="M2205.1,651.723l-5.192,-20.841l-14.513,2.016l-2.145,12.438l-43.517,-0l-0,-13.783l-6.45,-0l-0,-10.759l-33.846,0l0,49.084l99.396,-0l6.267,-18.155Z" style="fill:#3ca0be;fill-rule:nonzero;"/><path d="M467.524,289.366l-0,-73.621l-106.975,0l-0,167.163l106.975,-93.542Z" style="fill:#fff;fill-rule:nonzero;"/><path d="M681.842,222.429l401.15,365.496l894.421,-0l-641.837,-573.5l-359.554,312.008l50.516,59.429l306.063,-255.55l477.408,431.113l-620.133,-0l-505.063,-448.942l-662.641,579.442l644.816,-0l0,-80.229l-412.75,-0l427.604,-389.267Z" style="fill:#fff;fill-rule:nonzero;"/><rect x="2197.68" y="679.928" width="26.233" height="91.371" style="fill:url(#_Linear20);"/></g><defs><linearGradient id="_Linear1" x1="0" y1="0" x2="1" y2="0" gradientUnits="userSpaceOnUse" gradientTransform="matrix(8.4507,261.972,-261.972,8.4507,1382.51,701.718)"><stop offset="0" style="stop-color:#4169e1;stop-opacity:1"/><stop offset="0.52" style="stop-color:#4169e1;stop-opacity:1"/><stop offset="0.86" style="stop-color:#5682f1;stop-opacity:1"/><stop offset="1" style="stop-color:#5682f1;stop-opacity:1"/></linearGradient><linearGradient id="_Linear2" x1="0" y1="0" x2="1" y2="0" gradientUnits="userSpaceOnUse" gradientTransform="matrix(8.4507,261.972,-261.972,8.4507,1619.93,694.059)"><stop offset="0" style="stop-color:#4169e1;stop-opacity:1"/><stop offset="0.52" style="stop-color:#4169e1;stop-opacity:1"/><stop offset="0.86" style="stop-color:#5682f1;stop-opacity:1"/><stop offset="1" style="stop-color:#5682f1;stop-opacity:1"/></linearGradient><linearGradient id="_Linear3" x1="0" y1="0" x2="1" y2="0" gradientUnits="userSpaceOnUse" gradientTransform="matrix(8.4507,261.972,-261.972,8.4507,1887.03,685.443)"><stop offset="0" style="stop-color:#4169e1;stop-opacity:1"/><stop offset="0.52" style="stop-color:#4169e1;stop-opacity:1"/><stop offset="0.86" style="stop-color:#5682f1;stop-opacity:1"/><stop offset="1" style="stop-color:#5682f1;stop-opacity:1"/></linearGradient><linearGradient id="_Linear4" x1="0" y1="0" x2="1" y2="0" gradientUnits="userSpaceOnUse" gradientTransform="matrix(-12.6761,430.986,-430.986,-12.6761,2151.42,418.592)"><stop offset="0" style="stop-color:#4169e1;stop-opacity:1"/><stop offset="0.52" style="stop-color:#4169e1;stop-opacity:1"/><stop offset="0.86" style="stop-color:#5682f1;stop-opacity:1"/><stop offset="1" style="stop-color:#5682f1;stop-opacity:1"/></linearGradient><linearGradient id="_Linear5" x1="0" y1="0" x2="1" y2="0" gradientUnits="userSpaceOnUse" gradientTransform="matrix(0,253.521,-253.521,0,1524.96,427.694)"><stop offset="0" style="stop-color:#4169e1;stop-opacity:1"/><stop offset="0.52" style="stop-color:#4169e1;stop-opacity:1"/><stop offset="0.86" style="stop-color:#5682f1;stop-opacity:1"/><stop offset="1" style="stop-color:#5682f1;stop-opacity:1"/></linearGradient><linearGradient id="_Linear6" x1="0" y1="0" x2="1" y2="0" gradientUnits="userSpaceOnUse" gradientTransform="matrix(603.956,0,0,603.956,703.758,157.242)"><stop offset="0" style="stop-color:#4169e1;stop-opacity:1"/><stop offset="0.52" style="stop-color:#4169e1;stop-opacity:1"/><stop offset="0.86" style="stop-color:#5682f1;stop-opacity:1"/><stop offset="1" style="stop-color:#5682f1;stop-opacity:1"/></linearGradient><linearGradient id="_Linear7" x1="0" y1="0" x2="1" y2="0" gradientUnits="userSpaceOnUse" gradientTransform="matrix(0,249.296,-249.296,0,685.372,212.201)"><stop offset="0" style="stop-color:#4169e1;stop-opacity:1"/><stop offset="0.52" style="stop-color:#4169e1;stop-opacity:1"/><stop offset="0.86" style="stop-color:#5682f1;stop-opacity:1"/><stop offset="1" style="stop-color:#5682f1;stop-opacity:1"/></linearGradient><linearGradient id="_Linear8" x1="0" y1="0" x2="1" y2="0" gradientUnits="userSpaceOnUse" gradientTransform="matrix(463.553,2.84217e-14,-2.84217e-14,463.553,1176.23,298.76)"><stop offset="0" style="stop-color:#4169e1;stop-opacity:1"/><stop offset="0.52" style="stop-color:#4169e1;stop-opacity:1"/><stop offset="0.86" style="stop-color:#5682f1;stop-opacity:1"/><stop offset="1" style="stop-color:#5682f1;stop-opacity:1"/></linearGradient><linearGradient id="_Linear9" x1="0" y1="0" x2="1" y2="0" gradientUnits="userSpaceOnUse" gradientTransform="matrix(123.131,0,0,123.131,350.521,199.308)"><stop offset="0" style="stop-color:#4169e1;stop-opacity:1"/><stop offset="0.52" style="stop-color:#4169e1;stop-opacity:1"/><stop offset="0.86" style="stop-color:#5682f1;stop-opacity:1"/><stop offset="1" style="stop-color:#5682f1;stop-opacity:1"/></linearGradient><linearGradient id="_Linear10" x1="0" y1="0" x2="1" y2="0" gradientUnits="userSpaceOnUse" gradientTransform="matrix(-8.4507,308.451,-308.451,-8.4507,729.429,326.427)"><stop offset="0" style="stop-color:#4169e1;stop-opacity:1"/><stop offset="0.52" style="stop-color:#4169e1;stop-opacity:1"/><stop offset="0.86" style="stop-color:#5682f1;stop-opacity:1"/><stop offset="1" style="stop-color:#5682f1;stop-opacity:1"/></linearGradient><linearGradient id="_Linear11" x1="0" y1="0" x2="1" y2="0" gradientUnits="userSpaceOnUse" gradientTransform="matrix(-8.4507,308.451,-308.451,-8.4507,649.444,324.235)"><stop offset="0" style="stop-color:#4169e1;stop-opacity:1"/><stop offset="0.52" style="stop-color:#4169e1;stop-opacity:1"/><stop offset="0.86" style="stop-color:#5682f1;stop-opacity:1"/><stop offset="1" style="stop-color:#5682f1;stop-opacity:1"/></linearGradient><linearGradient id="_Linear12" x1="0" y1="0" x2="1" y2="0" gradientUnits="userSpaceOnUse" gradientTransform="matrix(-8.4507,308.451,-308.451,-8.4507,727.11,326.363)"><stop offset="0" style="stop-color:#4169e1;stop-opacity:1"/><stop offset="0.52" style="stop-color:#4169e1;stop-opacity:1"/><stop offset="0.86" style="stop-color:#5682f1;stop-opacity:1"/><stop offset="1" style="stop-color:#5682f1;stop-opacity:1"/></linearGradient><linearGradient id="_Linear13" x1="0" y1="0" x2="1" y2="0" gradientUnits="userSpaceOnUse" gradientTransform="matrix(-8.4507,308.451,-308.451,-8.4507,648.114,324.199)"><stop offset="0" style="stop-color:#4169e1;stop-opacity:1"/><stop offset="0.52" style="stop-color:#4169e1;stop-opacity:1"/><stop offset="0.86" style="stop-color:#5682f1;stop-opacity:1"/><stop offset="1" style="stop-color:#5682f1;stop-opacity:1"/></linearGradient><linearGradient id="_Linear14" x1="0" y1="0" x2="1" y2="0" gradientUnits="userSpaceOnUse" gradientTransform="matrix(0,287.324,-287.324,0,1371.35,148.82)"><stop offset="0" style="stop-color:#4169e1;stop-opacity:1"/><stop offset="0.52" style="stop-color:#4169e1;stop-opacity:1"/><stop offset="0.86" style="stop-color:#5682f1;stop-opacity:1"/><stop offset="1" style="stop-color:#5682f1;stop-opacity:1"/></linearGradient><linearGradient id="_Linear15" x1="0" y1="0" x2="1" y2="0" gradientUnits="userSpaceOnUse" gradientTransform="matrix(0,287.324,-287.324,0,1291.3,148.82)"><stop offset="0" style="stop-color:#4169e1;stop-opacity:1"/><stop offset="0.52" style="stop-color:#4169e1;stop-opacity:1"/><stop offset="0.86" style="stop-color:#5682f1;stop-opacity:1"/><stop offset="1" style="stop-color:#5682f1;stop-opacity:1"/></linearGradient><linearGradient id="_Linear16" x1="0" y1="0" x2="1" y2="0" gradientUnits="userSpaceOnUse" gradientTransform="matrix(0,287.324,-287.324,0,1371.32,148.82)"><stop offset="0" style="stop-color:#4169e1;stop-opacity:1"/><stop offset="0.52" style="stop-color:#4169e1;stop-opacity:1"/><stop offset="0.86" style="stop-color:#5682f1;stop-opacity:1"/><stop offset="1" style="stop-color:#5682f1;stop-opacity:1"/></linearGradient><linearGradient id="_Linear17" x1="0" y1="0" x2="1" y2="0" gradientUnits="userSpaceOnUse" gradientTransform="matrix(0,287.324,-287.324,0,1291.32,148.82)"><stop offset="0" style="stop-color:#4169e1;stop-opacity:1"/><stop offset="0.52" style="stop-color:#4169e1;stop-opacity:1"/><stop offset="0.86" style="stop-color:#5682f1;stop-opacity:1"/><stop offset="1" style="stop-color:#5682f1;stop-opacity:1"/></linearGradient><linearGradient id="_Linear18" x1="0" y1="0" x2="1" y2="0" gradientUnits="userSpaceOnUse" gradientTransform="matrix(-12.7733,434.291,-434.291,-12.7733,2156.07,417.541)"><stop offset="0" style="stop-color:#4169e1;stop-opacity:1"/><stop offset="0.52" style="stop-color:#4169e1;stop-opacity:1"/><stop offset="0.86" style="stop-color:#5682f1;stop-opacity:1"/><stop offset="1" style="stop-color:#5682f1;stop-opacity:1"/></linearGradient><linearGradient id="_Linear19" x1="0" y1="0" x2="1" y2="0" gradientUnits="userSpaceOnUse" gradientTransform="matrix(-12.6761,430.986,-430.986,-12.6761,2222.06,420.669)"><stop offset="0" style="stop-color:#4169e1;stop-opacity:1"/><stop offset="0.52" style="stop-color:#4169e1;stop-opacity:1"/><stop offset="0.86" style="stop-color:#5682f1;stop-opacity:1"/><stop offset="1" style="stop-color:#5682f1;stop-opacity:1"/></linearGradient><linearGradient id="_Linear20" x1="0" y1="0" x2="1" y2="0" gradientUnits="userSpaceOnUse" gradientTransform="matrix(-12.6761,430.986,-430.986,-12.6761,2219.77,420.602)"><stop offset="0" style="stop-color:#4169e1;stop-opacity:1"/><stop offset="0.52" style="stop-color:#4169e1;stop-opacity:1"/><stop offset="0.86" style="stop-color:#5682f1;stop-opacity:1"/><stop offset="1" style="stop-color:#5682f1;stop-opacity:1"/></linearGradient></defs></svg>